<svg xmlns="http://www.w3.org/2000/svg" width="171" height="28" viewBox="0 0 171 28"><title>imaginelabs_01</title><path d="M2.1,3.3A2.23,2.23,0,0,1,4.6,1.2,2.23,2.23,0,0,1,7.1,3.3V3.4A2.23,2.23,0,0,1,4.6,5.5,2.3,2.3,0,0,1,2.1,3.3h0ZM2.4,9.1c0-1.8,2.1-3.1,4-1.5a1.61,1.61,0,0,1,.5,1.1V21.2a1.61,1.61,0,0,1-.5,1.1c-1.9,1.5-4,.3-4-1.5V9.1Z" style="fill:#fff"/><path d="M9.3,9.1c0-1.8,2.1-3.1,4-1.5a1.61,1.61,0,0,1,.5,1.1V9.4a5.63,5.63,0,0,1,4.6-2.5,4.67,4.67,0,0,1,4.4,2.5,6.49,6.49,0,0,1,5.1-2.5c3.3,0,5.3,2,5.3,5.8v8.6a1.61,1.61,0,0,1-.5,1.1c-1.9,1.5-4,.3-4-1.5V14c0-2.1-.9-3.2-2.6-3.2s-2.7,1.1-2.7,3.2v7.2a1.61,1.61,0,0,1-.5,1.1c-1.9,1.5-4,.3-4-1.5V14c0-2.1-.9-3.2-2.6-3.2s-2.7,1.1-2.7,3.2v7.2a1.61,1.61,0,0,1-.5,1.1c-1.9,1.5-4,.2-4-1.5V9.1H9.3Z" style="fill:#fff"/><path d="M34.3,18.2h0c0-3.5,2.6-5.1,6.3-5.1a13.15,13.15,0,0,1,3.8.6V13.4c0-1.8-1.1-2.9-3.4-2.9a13.74,13.74,0,0,0-3.1.4,2.77,2.77,0,0,1-1.3.1,1,1,0,0,1-.7-0.4,1.91,1.91,0,0,1,.7-3.1,14.14,14.14,0,0,1,5-.8c2.4,0,4.2.6,5.3,1.8a6.76,6.76,0,0,1,1.7,5v7.7a1.3,1.3,0,0,1-.8,1.2c-2,.9-3.5-0.3-3.5-1.5h0a6.07,6.07,0,0,1-4.7,2c-2.8.1-5.3-1.6-5.3-4.7m10.3-1V16.4a6.39,6.39,0,0,0-2.8-.6c-1.9,0-3.1.8-3.1,2.2h0c0,1.2,1,1.9,2.4,1.9,2,0,3.5-1.1,3.5-2.7" style="fill:#fff"/><path d="M52.1,26.4c-1.1-.4-1.6-1.5-1-2.9a1,1,0,0,1,.6-0.5,2.41,2.41,0,0,1,1.7,0,10,10,0,0,0,4.3.9c3,0,4.5-1.5,4.5-4.3V18.8a6,6,0,0,1-5.1,2.5,6.91,6.91,0,0,1-7-7.3h0a6.91,6.91,0,0,1,7-7.3A6.5,6.5,0,0,1,62.2,9h0a2.32,2.32,0,0,1,4-1.5,1.61,1.61,0,0,1,.5,1.1V19.2c0,2.8-.7,4.9-2,6.2-1.5,1.5-3.7,2.1-6.8,2.1a18.65,18.65,0,0,1-5.8-1.1M62.2,14.1h0a3.65,3.65,0,0,0-3.8-3.7A3.58,3.58,0,0,0,54.6,14v0.7a2.67,2.67,0,0,0,1.5,2.4c3.1,1.6,6.1-.1,6.1-3" style="fill:#fff"/><path d="M68.8,3.3a2.54,2.54,0,0,1,5,0V3.4a2.23,2.23,0,0,1-2.5,2.1,2.3,2.3,0,0,1-2.5-2.2h0ZM69,9.1c0-1.8,2.1-3.1,4-1.5a1.61,1.61,0,0,1,.5,1.1V21.2a1.61,1.61,0,0,1-.5,1.1c-1.9,1.5-4,.3-4-1.5V9.1Z" style="fill:#fff"/><path d="M75.9,9.1c0-1.8,2.1-3.1,4-1.5a1.61,1.61,0,0,1,.5,1.1V9.4A5.49,5.49,0,0,1,85,6.9c3.4,0,5.3,2.2,5.3,5.8v8.6a1.61,1.61,0,0,1-.5,1.1c-1.9,1.5-4,.3-4-1.5V14c0-2.1-1-3.2-2.7-3.2s-2.8,1.1-2.8,3.2v7.2a1.61,1.61,0,0,1-.5,1.1c-1.9,1.5-4,.2-4-1.5V9.1h0.1Z" style="fill:#fff"/><path d="M99.8,23.1A7.85,7.85,0,0,1,91.6,15V14.9c0-4.5,3.2-8.2,7.7-8.2a7.38,7.38,0,0,1,7.5,7.5,2,2,0,0,1-2.1,2.1H96a3.61,3.61,0,0,0,3.8,3.1,5.17,5.17,0,0,0,3.2-1.1,2.46,2.46,0,0,1,1.8-.3,0.94,0.94,0,0,1,.7.5,2,2,0,0,1-.3,2.5,7.55,7.55,0,0,1-5.4,2.1m2.8-9.5c-0.3-2-1.4-3.3-3.3-3.3s-3,1.3-3.4,3.3h6.7Z" style="fill:#fff"/><path d="M113.2,1.7a1.1,1.1,0,1,1,2.2,0V20.3a1,1,0,0,1-1.1,1.1,1.11,1.11,0,0,1-1.1-1.1V1.7Z" style="fill:#00B3DF"/><path d="M118.7,17h0c0-3.1,2.5-4.7,6.2-4.7a18.16,18.16,0,0,1,4.5.6V12.4c0-2.6-1.6-4-4.3-4a8.87,8.87,0,0,0-3.8.8,0.6,0.6,0,0,1-.4.1,1,1,0,0,1-1-.9,1,1,0,0,1,.6-0.9,11.59,11.59,0,0,1,4.7-1,6.24,6.24,0,0,1,4.7,1.6,5.68,5.68,0,0,1,1.5,4.2v8a1.1,1.1,0,0,1-1,1.1,1,1,0,0,1-1-1V19a6.44,6.44,0,0,1-5.3,2.5c-2.7,0-5.4-1.5-5.4-4.5m10.7-1.1V14.5a15.83,15.83,0,0,0-4.3-.6c-2.7,0-4.2,1.2-4.2,3V17c0,1.8,1.7,2.9,3.7,2.9,2.6-.1,4.8-1.7,4.8-4" style="fill:#00B3DF"/><path d="M135.5,1.7a1.1,1.1,0,0,1,2.2,0v8a6.65,6.65,0,0,1,5.6-3.2c3.5,0,6.9,2.8,6.9,7.5h0c0,4.8-3.4,7.6-6.9,7.6a6.8,6.8,0,0,1-5.6-3.1v1.8a1,1,0,0,1-1.1,1.1,1.11,1.11,0,0,1-1.1-1.1V1.7ZM148,14h0c0-3.5-2.4-5.7-5.1-5.7a5.47,5.47,0,0,0-5.3,5.6V14a5.4,5.4,0,0,0,5.3,5.6c2.7,0,5.1-2.1,5.1-5.6" style="fill:#00B3DF"/><path d="M152.8,19.7a0.89,0.89,0,0,1-.4-0.8,0.92,0.92,0,0,1,1-.9,0.76,0.76,0,0,1,.5.2,8.12,8.12,0,0,0,4.6,1.5c1.7,0,3-.9,3-2.3V17.3c0-1.5-1.7-2-3.6-2.6-2.3-.6-4.8-1.4-4.8-4.1V10.5c0-2.5,2.1-4.2,4.9-4.2a10.85,10.85,0,0,1,4.6,1.2,1.05,1.05,0,0,1,.5.9,0.92,0.92,0,0,1-1,.9,4.33,4.33,0,0,1-.5-0.1,7.87,7.87,0,0,0-3.8-1.1c-1.7,0-2.8.9-2.8,2.1v0.1c0,1.4,1.8,1.9,3.7,2.5,2.2,0.7,4.7,1.5,4.7,4.2v0.1c0,2.8-2.3,4.4-5.2,4.4a10.24,10.24,0,0,1-5.4-1.8" style="fill:#00B3DF"/><circle cx="168.4" cy="19.5" r="1.8" style="fill:#00B3DF"/></svg>